<?xml version="1.0" encoding="UTF-8"?> <!-- Generator: Adobe Illustrator 25.1.0, SVG Export Plug-In . SVG Version: 6.00 Build 0) --> <svg xmlns="http://www.w3.org/2000/svg" xmlns:xlink="http://www.w3.org/1999/xlink" version="1.1" id="Layer_1" x="0px" y="0px" viewBox="0 0 95 86" style="enable-background:new 0 0 95 86;" xml:space="preserve"> <style type="text/css"> .st0{fill:#CD1C32;} .st1{fill:#FFFFFF;} </style> <rect x="-0.5" y="0" class="st0" width="96" height="86"></rect> <g> <g> <g> <path class="st1" d="M30.5,66.2h3.6l-2.7-9.6h-3.7l-7.7,9.6h3.7l1.2-1.7h5.1L30.5,66.2z M26.6,62.3l2.2-3.1l0.8,3.1H26.6z"></path> <path class="st1" d="M45.3,60.2h-5.9c-0.4,0-0.6-0.4-0.5-0.7l0.1-0.2c0.1-0.4,0.5-0.7,0.9-0.7h6.3c0,0,0,0,0,0h1.3l0-0.6 c0-1-0.9-1.5-1.6-1.5l-6.8,0c-0.8,0-2.5,0.5-2.9,1.8l-0.5,1.9c-0.5,1.4,0.5,2.1,1.4,2.1l6.1,0c0.4,0,0.7,0.4,0.6,0.8l-0.1,0.2 c-0.1,0.4-0.6,0.8-1,0.8l-7.8,0l0,0.9c0,0.6,0.6,1.2,1.4,1.2h7.6c0.7,0,1.7-0.5,2.2-1.1s1-2.4,1-3.3 C46.8,60.8,46.1,60.2,45.3,60.2z"></path> <path class="st1" d="M13.1,59.6c0.2-0.6,0.7-1,1.3-1l7.7,0l0-0.6c0-1-0.9-1.5-1.6-1.5l-6.8,0c-1.3,0-3,0.9-3.3,1.9l-1.6,4.9 c-0.3,1.1,0.1,2.8,1.7,2.8H18c1.5,0,2.5-1.3,2.8-2.4l1.1-3.5h-6.7l-0.7,2.2h3.7L18,63.2c-0.1,0.4-0.7,0.8-1.2,0.8h-4.1 c-0.5,0-0.9-0.5-0.7-1L13.1,59.6z"></path> </g> <g> <path class="st1" d="M69.4,66.2h3.6l-2.7-9.6h-3.7L59,66.2h3.7l1.2-1.7H69L69.4,66.2z M65.5,62.3l2.2-3.1l0.8,3.1H65.5z"></path> <path class="st1" d="M84.1,60.2h-5.9c-0.4,0-0.6-0.4-0.5-0.7l0.1-0.2c0.1-0.4,0.5-0.7,0.9-0.7H85c0,0,0,0,0,0h1.3l0-0.6 c0-1-0.9-1.5-1.6-1.5l-6.8,0c-0.8,0-2.5,0.5-2.9,1.8l-0.5,1.9c-0.5,1.4,0.5,2.1,1.4,2.1l6.1,0c0.4,0,0.7,0.4,0.6,0.8l-0.1,0.2 c-0.1,0.4-0.6,0.8-1,0.8l-7.8,0l0,0.9c0,0.6,0.6,1.2,1.4,1.2h7.6c0.7,0,1.7-0.5,2.2-1.1c0.5-0.6,1-2.4,1-3.3 C85.7,60.8,84.9,60.2,84.1,60.2z"></path> <path class="st1" d="M52,59.6c0.2-0.6,0.7-1,1.3-1l7.7,0l0-0.6c0-1-0.9-1.5-1.6-1.5l-6.8,0c-1.3,0-3,0.9-3.3,1.9l-1.6,4.9 c-0.3,1.1,0.1,2.8,1.7,2.8h7.5c1.5,0,2.5-1.3,2.8-2.4l1.1-3.5h-6.7l-0.7,2.2h3.7l-0.3,0.8c-0.1,0.4-0.7,0.8-1.2,0.8h-4.1 c-0.5,0-0.9-0.5-0.7-1L52,59.6z"></path> </g> </g> <g> <path class="st1" d="M46.1,29.5c-1.4,0-2.6,0.9-3.1,2.2l-2.5,7.7c-0.4,1.1,0.5,2.3,1.7,2.3h9.3c1,0,2.4-0.8,2.7-1.8l0.6-1.9h-8.4 l1.6-4.9h15.2l-2.6,8c-0.8,2.4-3,5.4-6.3,5.4H26.6c0.6,2.6,2.4,4.8,5.7,4.8h24.4c4.9,0,8-4.4,9.2-7.9c0,0,4.2-13.1,4.5-14 L46.1,29.5z"></path> <path class="st1" d="M37.1,29.1c0.8-2.4,4.6-4.4,7.5-4.4l26.2,0c-0.6-2.6-2.4-4.8-5.7-4.8l-22.3,0c-4.1,0-9.7,2.9-10.8,6.4 l-5,15.5H33L37.1,29.1z"></path> </g> </g> </svg> 