<?xml version="1.0" encoding="UTF-8"?> <!-- Generator: Adobe Illustrator 22.0.1, SVG Export Plug-In . SVG Version: 6.00 Build 0) --> <svg xmlns="http://www.w3.org/2000/svg" xmlns:xlink="http://www.w3.org/1999/xlink" version="1.1" id="Layer_1" x="0px" y="0px" viewBox="0 0 95 86" style="enable-background:new 0 0 95 86;" xml:space="preserve"> <style type="text/css"> .st0{fill:#1C355E;} .st1{fill:#FFFFFF;} </style> <g> <rect x="0" class="st0" width="95" height="86"></rect> <g> <g> <path class="st1" d="M47.1,35.1c2.7,0,2.7,0,2.7,0.9v5.7h3.8V26h-3.8v4.7c0,0.9,0,0.9-2.7,0.9c-2.7,0-2.7,0-2.7-0.9V26h-3.7v15.7 h3.7V36C44.4,35.1,44.4,35.1,47.1,35.1"></path> <path class="st1" d="M60.4,29.3c-0.6-3-1-4.6-2.4-6c1.8-0.9,2-3.6,1.8-5.5c0,0-1.4-0.7-2.3-1C56.6,16.4,55,16,55,16 c0,1.5,0.2,3.7-0.9,4.4c-1.1,0.6-3.8,0-4.2-1.4c-0.1-0.4-0.3-1.9,0-3.7c-0.4-0.1-1.5-0.3-2.7-0.3c-1.4,0-2.3,0.3-2.7,0.3 c0.2,1.8,0.1,3.3,0,3.7c-0.5,1.4-3.1,2-4.2,1.4c-1.2-0.7-0.9-2.9-0.9-4.4c0,0-1.7,0.4-2.8,0.8c-0.9,0.3-2.2,1-2.2,1 c-0.3,1.9,0,4.6,1.8,5.5c-1.3,1.4-1.8,3-2.4,6c-0.5,2.7-0.4,4.6-0.3,6.1c0.1,2.1,0.1,3.3,0.6,5.2c0.7,2.2,1.1,3.3,2.6,4.8 c2.9,3.1,7.8,3,10.5,3v0c2.7,0,7.7,0.3,10.6-2.9c1.4-1.6,1.7-2.6,2.4-4.8c0.6-1.9,0.5-3.1,0.7-5.2C60.9,33.9,61,32,60.4,29.3z M55.1,42.4c-0.7,1.1-1.6,1.4-2.2,1.6c-1.6,0.4-2.7,0.4-5.8,0.4c-3.2,0-4.3,0-5.9-0.4c-0.6-0.2-1.5-0.5-2.3-1.6 c-1.3-2.3-1.3-6.6-1.3-8.7c0-2.1,0-5.7,1.3-8c0.7-1.2,1.7-1.5,2.3-1.7c1.6-0.4,2.7-0.4,5.9-0.4c3.1,0,4.2,0,5.8,0.4 c0.6,0.2,1.5,0.5,2.2,1.7c1.4,2.3,1.4,6.2,1.4,8.3C56.6,35.9,56.6,40.1,55.1,42.4z"></path> </g> <g> <path class="st1" d="M43.9,53.8v1c-0.5-0.7-1.1-1.2-2.1-1.2c-2.2,0-3.5,1.6-3.5,4.1c0,1.3,0.4,2.5,1.1,3.2 c0.6,0.6,1.2,0.9,2.1,0.9c1,0,1.7-0.5,2.3-1.2v3.1h1.8v-9.9L43.9,53.8z M42,60.2c-0.5,0-0.9-0.2-1.2-0.5 c-0.4-0.4-0.7-1.2-0.7-2.1c0-0.8,0.3-1.6,0.7-2.1c0.3-0.3,0.7-0.5,1.1-0.5c1.1,0,1.6,0.7,1.8,2c0,0.2,0,0.9,0,1 C43.7,59.5,43.2,60.2,42,60.2z"></path> <path class="st1" d="M81.2,51.5c-0.2-0.2-0.5-0.4-0.9-0.4c-0.3,0-0.6,0.1-0.9,0.4c-0.2,0.2-0.3,0.5-0.3,0.9 c0,0.3,0.1,0.6,0.3,0.9c0.2,0.2,0.5,0.4,0.9,0.4c0.3,0,0.6-0.1,0.9-0.4c0.2-0.2,0.3-0.5,0.3-0.9C81.6,52,81.5,51.7,81.2,51.5 M81.1,53.1c-0.2,0.2-0.4,0.3-0.7,0.3c-0.3,0-0.5-0.1-0.7-0.3c-0.2-0.2-0.3-0.4-0.3-0.7c0-0.3,0.1-0.5,0.3-0.7 c0.2-0.2,0.4-0.3,0.7-0.3c0.3,0,0.5,0.1,0.7,0.3c0.2,0.2,0.3,0.4,0.3,0.7C81.3,52.6,81.3,52.9,81.1,53.1 M80.9,52.9L80.9,52.9 v-0.2c0-0.1,0-0.1-0.1-0.2c0,0-0.1-0.1-0.1-0.1c0,0,0.1,0,0.1,0c0.1-0.1,0.2-0.2,0.1-0.3c0-0.2-0.1-0.3-0.2-0.4 c-0.1,0-0.2,0-0.4,0h-0.5V53h0.3v-0.5h0.1c0.1,0,0.2,0,0.2,0c0.1,0,0.1,0.1,0.1,0.3v0.1l0,0v0v0l0,0H81L80.9,52.9 C80.9,53,80.9,53,80.9,52.9 M80.5,52.3c0,0-0.1,0-0.2,0h-0.2v-0.4h0.1c0.1,0,0.2,0,0.3,0c0,0,0.1,0.1,0.1,0.2 C80.7,52.2,80.6,52.2,80.5,52.3"></path> <path class="st1" d="M74.4,59.4c-0.1-0.6,0.3-1,1.1-1.2c0.2,0,0.5-0.1,0.7-0.1c0.3-0.1,0.8-0.2,1.1-0.4v1.2c0,1-0.9,1.3-1.6,1.3 C75,60.2,74.4,60,74.4,59.4 M79.2,55.9c0-0.6-0.2-1.1-0.6-1.4c-0.5-0.5-1.4-0.9-2.5-0.9c-1.1,0-2.9,0.2-3.1,2.3h1.8 c0-1,1.2-0.9,1.2-0.9c0.4,0,0.9,0.1,1.1,0.3c0.2,0.1,0.3,0.3,0.3,0.7c0,0.5-0.2,0.8-1.9,0.9c-1.3,0.1-2.9,0.5-2.9,2.5 c0,0.6,0.2,1.2,0.6,1.6c0.5,0.5,1.2,0.8,2,0.8c1.1,0,1.7-0.3,2.3-0.9l0.1,0.7h1.8v-0.3c-0.2-0.2-0.2-1-0.2-1V55.9z M72,56.3 c0-0.8-0.2-1.5-0.7-1.9c-0.5-0.5-1.1-0.7-2-0.7c-0.9,0-1.6,0.5-2.1,1.4v-1.2h-1.7v7.8h1.8V57c0-0.6,0.1-1.1,0.5-1.4 c0.3-0.3,0.7-0.5,1.3-0.5c0.8,0,1.1,0.5,1.2,1.6v4.9H72V56.3z M63.7,53.6c-0.6,0.1-1.3,0.8-1.6,1.6v-1.4h-1.7v7.8h1.8v-3.7 c0-0.8,0.1-1.5,0.4-2c0.3-0.4,0.8-0.8,1.3-0.8c0.5,0,0.8,0.1,0.8,0.1v-1.7C64.8,53.6,64.3,53.5,63.7,53.6 M53.2,53.8h-1.9l-1.6,6 l-1.7-6h-2l2.6,7.8h2L53.2,53.8z M34.8,60.3c-0.8,0-1.4-0.3-1.5-1h-1.9c0.1,2,2,2.6,3.3,2.5c1.3,0,1.9-0.3,2.5-1 c0.4-0.4,0.6-1,0.6-1.6c0-1.5-1.1-2-2.4-2.3l-0.4-0.1c-1-0.2-1.8-0.4-1.8-1c0-0.6,0.7-0.7,1.2-0.7c0.5,0,0.9,0,1.2,0.6h1.9 c-0.2-1.5-1.5-2.1-3-2.1c-1.4,0-3.1,0.6-3.1,2.3c0,1.6,1.1,2,2.4,2.3c0.2,0,0.3,0.1,0.5,0.1c1,0.2,1.7,0.4,1.7,1 C36.1,60,35.5,60.3,34.8,60.3 M14.9,61.6h2V57h4.2v4.6h2V51.2h-2v4h-4.2v-4h-2V61.6z M54.6,59.4c-0.1-0.6,0.3-1,1.1-1.2 c0.2,0,0.5-0.1,0.7-0.1c0.3-0.1,0.8-0.2,1.1-0.4v1.2c0,1-0.9,1.3-1.6,1.3C55.2,60.2,54.6,60,54.6,59.4 M59.4,55.9 c0-0.6-0.2-1.1-0.6-1.4c-0.5-0.5-1.3-0.8-2.4-0.8c-1.1,0-2.9,0.2-3.1,2.3h1.8c0-1,1.2-0.9,1.2-0.9c0.4,0,0.8,0.1,1,0.3 c0.2,0.1,0.3,0.3,0.3,0.7c0,0.5-0.2,0.8-1.9,0.9c-1.3,0.1-2.9,0.5-2.9,2.5c0,0.6,0.2,1.2,0.6,1.6c0.5,0.5,1.2,0.8,2,0.8 c1.1,0,1.7-0.3,2.3-0.9l0.1,0.7h1.8v-0.3c-0.2-0.2-0.2-1-0.2-1V55.9z M30.7,53.8h-1.8v4.6c0,1.3-0.5,1.9-1.5,1.9 c-0.4,0-0.7-0.2-0.9-0.4c-0.3-0.3-0.4-0.7-0.4-1.4v-4.7h-1.8v4.9c0,1.1,0.2,1.8,0.7,2.3c0.5,0.5,1,0.7,2,0.7c0.7,0,1.5-0.5,2-1.1 v0.9h1.8V53.8z"></path> <path class="st1" d="M81.2,51.5c-0.2-0.2-0.5-0.4-0.9-0.4c-0.3,0-0.6,0.1-0.9,0.4c-0.2,0.2-0.3,0.5-0.3,0.9 c0,0.3,0.1,0.6,0.3,0.9c0.2,0.2,0.5,0.4,0.9,0.4c0.3,0,0.6-0.1,0.9-0.4c0.2-0.2,0.3-0.5,0.3-0.9C81.6,52,81.5,51.7,81.2,51.5 M81.1,53.1c-0.2,0.2-0.4,0.3-0.7,0.3c-0.3,0-0.5-0.1-0.7-0.3c-0.2-0.2-0.3-0.4-0.3-0.7c0-0.3,0.1-0.5,0.3-0.7 c0.2-0.2,0.4-0.3,0.7-0.3c0.3,0,0.5,0.1,0.7,0.3c0.2,0.2,0.3,0.4,0.3,0.7C81.3,52.6,81.3,52.9,81.1,53.1 M80.9,52.9L80.9,52.9 v-0.2c0-0.1,0-0.1-0.1-0.2c0,0-0.1-0.1-0.1-0.1c0,0,0.1,0,0.1,0c0.1-0.1,0.2-0.2,0.1-0.3c0-0.2-0.1-0.3-0.2-0.4 c-0.1,0-0.2,0-0.4,0h-0.5V53h0.3v-0.5h0.1c0.1,0,0.2,0,0.2,0c0.1,0,0.1,0.1,0.1,0.3v0.1l0,0v0v0l0,0H81L80.9,52.9 C80.9,53,80.9,53,80.9,52.9 M80.5,52.3c0,0-0.1,0-0.2,0h-0.2v-0.4h0.1c0.1,0,0.2,0,0.3,0c0,0,0.1,0.1,0.1,0.2 C80.7,52.2,80.6,52.2,80.5,52.3"></path> <g> <rect x="47.5" y="63.1" class="st1" width="31.8" height="0.5"></rect> </g> <g> <polygon class="st1" points="47.5,65.2 48.4,65.2 49.1,67.3 49.1,67.3 49.8,65.2 50.7,65.2 50.7,68.2 50.1,68.2 50.1,66.1 50.1,66.1 49.3,68.2 48.8,68.2 48.1,66.1 48.1,66.1 48.1,68.2 47.5,68.2 "></polygon> <path class="st1" d="M52.6,65.2c0.9,0,1.5,0.7,1.5,1.6c0,0.9-0.5,1.5-1.5,1.5c-0.9,0-1.5-0.7-1.5-1.5 C51.2,65.8,51.7,65.2,52.6,65.2 M52.6,67.7c0.6,0,0.8-0.5,0.8-1c0-0.5-0.2-1-0.8-1c-0.6,0-0.8,0.5-0.8,1 C51.8,67.2,52,67.7,52.6,67.7"></path> <polygon class="st1" points="55.1,65.8 54.3,65.8 54.3,65.2 56.7,65.2 56.7,65.8 55.8,65.8 55.8,68.2 55.1,68.2 "></polygon> <path class="st1" d="M58.3,65.2c0.9,0,1.5,0.7,1.5,1.6c0,0.9-0.5,1.5-1.5,1.5c-0.9,0-1.5-0.7-1.5-1.5 C56.9,65.8,57.4,65.2,58.3,65.2 M58.3,67.7c0.6,0,0.8-0.5,0.8-1c0-0.5-0.2-1-0.8-1c-0.6,0-0.8,0.5-0.8,1 C57.5,67.2,57.7,67.7,58.3,67.7"></path> <path class="st1" d="M60.2,65.2h1.6c0.5,0,0.9,0.4,0.9,0.8c0,0.3-0.1,0.6-0.5,0.7v0c0.3,0.1,0.4,0.4,0.4,0.7 c0,0.2,0,0.5,0.1,0.7h-0.6c-0.1-0.2-0.1-0.5-0.1-0.7c0-0.3-0.2-0.4-0.5-0.4h-0.6v1.2h-0.6V65.2z M60.9,66.6h0.7 c0.3,0,0.4-0.1,0.4-0.4c0-0.3-0.2-0.4-0.4-0.4h-0.7V66.6z"></path> <path class="st1" d="M65.2,66.2c0-0.3-0.3-0.5-0.6-0.5c-0.6,0-0.8,0.5-0.8,1c0,0.5,0.2,1,0.8,1c0.4,0,0.6-0.3,0.7-0.7h0.6 c-0.1,0.7-0.6,1.2-1.3,1.2c-0.9,0-1.5-0.7-1.5-1.5c0-0.9,0.5-1.6,1.5-1.6c0.6,0,1.2,0.4,1.3,1.1H65.2z"></path> <polygon class="st1" points="67,67 65.9,65.2 66.6,65.2 67.3,66.4 68,65.2 68.7,65.2 67.6,67.1 67.6,68.2 67,68.2 "></polygon> <path class="st1" d="M70.8,66.2c0-0.3-0.3-0.5-0.6-0.5c-0.6,0-0.8,0.5-0.8,1c0,0.5,0.2,1,0.8,1c0.4,0,0.6-0.3,0.7-0.7h0.6 c-0.1,0.7-0.6,1.2-1.3,1.2c-0.9,0-1.5-0.7-1.5-1.5c0-0.9,0.5-1.6,1.5-1.6c0.6,0,1.2,0.4,1.3,1.1H70.8z"></path> <polygon class="st1" points="71.9,65.2 72.6,65.2 72.6,67.6 74,67.6 74,68.2 71.9,68.2 "></polygon> <polygon class="st1" points="74.4,65.2 76.6,65.2 76.6,65.8 75,65.8 75,66.4 76.5,66.4 76.5,66.9 75,66.9 75,67.6 76.6,67.6 76.6,68.2 74.4,68.2 "></polygon> <path class="st1" d="M77.6,67.2c0,0.4,0.3,0.5,0.7,0.5c0.2,0,0.6-0.1,0.6-0.4c0-0.3-0.4-0.4-0.9-0.5c-0.4-0.1-0.9-0.3-0.9-0.8 c0-0.6,0.6-0.9,1.1-0.9c0.6,0,1.2,0.3,1.2,1h-0.6c0-0.4-0.3-0.4-0.6-0.4c-0.2,0-0.4,0.1-0.4,0.3c0,0.2,0.1,0.3,0.9,0.4 c0.2,0,0.9,0.2,0.9,0.9c0,0.5-0.4,0.9-1.2,0.9c-0.7,0-1.3-0.3-1.3-1.1H77.6z"></path> </g> </g> </g> </g> </svg> 