<?xml version="1.0" encoding="UTF-8"?> <!-- Generator: Adobe Illustrator 22.0.1, SVG Export Plug-In . SVG Version: 6.00 Build 0) --> <svg xmlns="http://www.w3.org/2000/svg" xmlns:xlink="http://www.w3.org/1999/xlink" version="1.1" id="Layer_1" x="0px" y="0px" viewBox="0 0 95 86" style="enable-background:new 0 0 95 86;" xml:space="preserve"> <style type="text/css"> .st0{fill:#F26522;} </style> <rect class="st0" width="95" height="86"></rect> <polygon points="14.2,32.4 23.5,32.4 25.9,26.7 30.2,32.4 50.2,32.4 56.4,26.7 55.4,32.4 63.2,32.4 69.7,26.7 68.8,32.4 77.2,32.4 80.7,16.5 72.2,16.5 65.4,22.6 66.7,16.5 58.5,16.5 49.6,25.4 53.4,14.5 67,14.5 67.6,11.7 31.9,11.7 30.9,14.5 44,14.5 38.5,28.5 34.1,22.8 41.6,16.5 35.3,16.5 27.6,22.7 30.2,16.5 21,16.5 "></polygon> </svg> 